<svg xmlns="http://www.w3.org/2000/svg" viewBox="0 0 512 512" role="img" aria-label="Xingyu Liu acoustic MEMS icon with top wave">
  <defs>
    <linearGradient id="bg" x1="64" y1="64" x2="448" y2="448" gradientUnits="userSpaceOnUse">
      <stop offset="0" stop-color="#18313a"/>
      <stop offset="0.58" stop-color="#16242f"/>
      <stop offset="1" stop-color="#102722"/>
    </linearGradient>
    <linearGradient id="cyan" x1="132" y1="152" x2="380" y2="388" gradientUnits="userSpaceOnUse">
      <stop offset="0" stop-color="#b9fff5"/>
      <stop offset="0.55" stop-color="#70dcd1"/>
      <stop offset="1" stop-color="#39aaa0"/>
    </linearGradient>
    <linearGradient id="wave" x1="102" y1="130" x2="410" y2="130" gradientUnits="userSpaceOnUse">
      <stop offset="0" stop-color="#d8b86a" stop-opacity="0.25"/>
      <stop offset="0.18" stop-color="#f2d98c" stop-opacity="0.95"/>
      <stop offset="0.5" stop-color="#f8e2a5" stop-opacity="1"/>
      <stop offset="0.82" stop-color="#f2d98c" stop-opacity="0.95"/>
      <stop offset="1" stop-color="#d8b86a" stop-opacity="0.25"/>
    </linearGradient>
    <filter id="soft" x="-20%" y="-20%" width="140%" height="140%">
      <feDropShadow dx="0" dy="12" stdDeviation="16" flood-color="#02080a" flood-opacity="0.32"/>
    </filter>
  </defs>

  <rect x="36" y="36" width="440" height="440" rx="98" fill="url(#bg)"/>
  <rect x="63" y="63" width="386" height="386" rx="76" fill="none" stroke="#d9bc70" stroke-width="8" opacity="0.84"/>

      <g fill="none" stroke-linecap="round">
        <path d="M162 110 C178 92 194 92 210 110 S242 128 258 110 S290 92 306 110 S338 128 358 110"
          stroke="url(#wave)" stroke-width="16"/>
        <path d="M174 90 C188 76 202 76 216 90 S244 104 258 90 S286 76 300 90 S328 104 344 90"
          stroke="#7fd9cf" stroke-width="5" opacity="0.3"/>
        <path d="M174 130 C188 144 202 144 216 130 S244 116 258 130 S286 144 300 130 S328 116 344 130"
          stroke="#7fd9cf" stroke-width="5" opacity="0.3"/>
  </g>

  <g filter="url(#soft)">
    <path d="M146 170 C194 216 221 246 256 280 C291 314 320 344 366 390" fill="none" stroke="url(#cyan)" stroke-width="34" stroke-linecap="round"/>
    <path d="M366 170 C318 216 291 246 256 280 C221 314 192 344 146 390" fill="none" stroke="url(#cyan)" stroke-width="34" stroke-linecap="round"/>
  </g>

  <circle cx="256" cy="280" r="14" fill="#f5dbc0"/>
</svg>
